<?xml version="1.0" encoding="UTF-8"?>
<svg id="Layer_1" data-name="Layer 1" xmlns="http://www.w3.org/2000/svg" viewBox="0 0 2093.58 1689.99">
  <defs>
    <style>
      .cls-1 {
        fill: #f8a31e;
      }

      .cls-1, .cls-2, .cls-3, .cls-4, .cls-5, .cls-6, .cls-7, .cls-8, .cls-9, .cls-10, .cls-11, .cls-12, .cls-13, .cls-14, .cls-15 {
        stroke-width: 0px;
      }

      .cls-2 {
        fill: #261632;
      }

      .cls-3 {
        fill: #19162e;
      }

      .cls-4 {
        fill: #0f0f27;
      }

      .cls-5 {
        fill: #141429;
      }

      .cls-6 {
        fill: #16132b;
      }

      .cls-7 {
        fill: #1f212b;
      }

      .cls-8 {
        fill: #1e1b2d;
      }

      .cls-9 {
        fill: #1f1c2e;
      }

      .cls-10 {
        fill: #16152a;
      }

      .cls-11 {
        fill: #241e2b;
      }

      .cls-12 {
        fill: #cbe313;
      }

      .cls-13 {
        fill: #c7de15;
      }

      .cls-14 {
        fill: #f1f1f2;
      }

      .cls-15 {
        fill: #ef1067;
      }
    </style>
  </defs>
  <path class="cls-14" d="M.02,1685.22c96.6.08,193.22.23,289.82.23s187.61-.24,281.41-.24c106.97,0,213.92.19,320.89.23,54.6,0,109.19-.21,163.79-.23,141.69-.04,283.38,0,425.08,0h610.39V1.76H10.09c-3.37,0-6.72-.04-10.09-.04C.3,1.14.55.12.87.1,3.09-.05,5.35.01,7.58.01h2086v1689.98H.02v-4.76H.02Z"/>
  <path class="cls-4" d="M1046.08,999.03c-229.96-1.28-415.01-186.58-413.94-414.44,1.07-228.79,187.5-413.82,415.76-412.66,228.66,1.17,413.77,187.37,412.47,414.91-1.3,228.56-187.14,413.47-414.29,412.19h0ZM853.05,404.1c0,34.44-.02,68.88,0,103.32,0,12.82,3.05,15.92,15.86,15.94,33.05.06,66.09.3,99.12-.26,5.21-.09,11.63-2.69,15.34-6.32,34.23-33.48,67.92-67.51,101.95-101.19,4.7-4.67,6.94-9.54,6.89-16.26-.24-32.76-.09-65.51-.11-98.28,0-12.7-3.29-16.2-15.68-16.2-69.16-.06-138.32-.04-207.5,0-12.82,0-15.85,3.12-15.85,15.96-.04,34.44,0,68.88,0,103.32l-.02-.02h0ZM1044.56,725.37c0-34.42.02-68.84,0-103.26,0-13.38-3.05-16.5-16.24-16.5-68.84-.04-137.68-.04-206.54,0-13.21,0-16.24,3.12-16.24,16.5-.02,68.56-.02,137.12,0,205.68,0,13.36,3.07,16.52,16.24,16.52,68.84.04,137.68.04,206.54,0,13.17,0,16.22-3.14,16.24-16.52.04-34.14,0-68.28,0-102.42ZM1221.69,481.73h-101.61c-15.04,0-17.8,2.71-17.8,17.41v204.02c0,14.34,2.92,17.33,17.07,17.33h204.89c13.85,0,16.92-3.01,16.92-16.62v-205.7c0-13.31-3.07-16.43-16.2-16.43-34.42-.04-68.86,0-103.28,0l.02-.02h-.01Z"/>
  <path class="cls-5" d="M853.05,404.1c0-34.44-.02-68.88,0-103.32,0-12.83,3.03-15.96,15.85-15.96,69.16-.04,138.32-.04,207.5,0,12.38,0,15.68,3.5,15.68,16.2.02,32.76-.13,65.51.11,98.28.06,6.72-2.18,11.59-6.89,16.26-34.03,33.69-67.71,67.71-101.95,101.19-3.71,3.63-10.12,6.23-15.34,6.32-33.03.56-66.08.32-99.12.26-12.82-.02-15.85-3.11-15.86-15.94-.04-34.44,0-68.88,0-103.32l.02.02h0ZM875.79,307.84v192.51h85.7v-89.37c0-15.28,2.54-17.78,18.2-17.78,27.44,0,54.86-.17,82.3.11,6.17.08,8.37-1.58,8.19-8-.43-14.83-.13-29.66-.13-44.49v-32.99h-194.24l-.02.02h0ZM983.58,480.89c21.57-21.7,43.87-44.15,64.7-65.1h-64.7v65.1Z"/>
  <path class="cls-3" d="M1044.56,725.37c0,34.14.02,68.28,0,102.42,0,13.38-3.07,16.52-16.24,16.52-68.84.04-137.68.04-206.54,0-13.17,0-16.24-3.16-16.24-16.52-.02-68.56-.02-137.12,0-205.68,0-13.36,3.05-16.49,16.24-16.5,68.84-.04,137.68-.04,206.54,0,13.19,0,16.22,3.12,16.24,16.5.04,34.42,0,68.84,0,103.26h0ZM1021.51,628.77h-192.73v192.34h192.73v-192.34h0Z"/>
  <path class="cls-10" d="M1221.69,481.73c34.42,0,68.86-.02,103.28,0,13.14,0,16.18,3.14,16.2,16.43v205.7c0,13.61-3.07,16.62-16.92,16.62h-204.89c-14.15,0-17.07-2.99-17.07-17.33v-204.02c0-14.7,2.77-17.39,17.8-17.41h101.61l-.02.02h.01ZM1124.83,504.51v192.75h193.65v-192.75h-193.65Z"/>
  <path class="cls-12" d="M875.79,307.84h194.24v32.99c0,14.83-.3,29.68.13,44.49.19,6.42-2.01,8.05-8.19,8-27.42-.3-54.86-.13-82.3-.11-15.66,0-18.2,2.5-18.2,17.78v89.37h-85.7v-192.51l.02-.02h0ZM972.84,362.74h-21c-15.39,0-30.81-.26-46.18.28-2.69.09-5.27,3.58-7.9,5.5,2.67,1.92,5.23,4.03,8.05,5.66,1.05.6,2.75.11,4.14.11,41.72,0,83.43,0,125.15-.04,2.77,0,5.76.06,8.21-.96,1.64-.68,3.5-3.2,3.5-4.87s-1.9-4.08-3.58-4.84c-2.15-.98-4.89-.81-7.4-.83-21-.06-41.99-.04-62.99-.04v.02h0ZM972.1,336.45c22.11,0,44.23.21,66.34-.24,2.88-.06,5.7-3.56,8.54-5.46-2.71-1.75-5.36-3.61-8.17-5.16-.87-.47-2.2-.08-3.31-.08h-125.98c-1.96,0-4.22-.51-5.8.28-2.2,1.11-3.88,3.26-5.78,4.95,1.77,1.83,3.26,4.2,5.4,5.29,1.81.92,4.38.4,6.62.41h62.14-.02.02Z"/>
  <path class="cls-13" d="M983.58,480.89v-65.1h64.7c-20.83,20.96-43.15,43.4-64.7,65.1Z"/>
  <path class="cls-15" d="M1021.51,628.77v192.34h-192.73v-192.34h192.73ZM924.19,711.97h66.34c4.48,0,9.45-.73,8.6-6.25-.32-2.15-5.61-3.61-8.75-5.16-.9-.45-2.2-.08-3.33-.08h-124.27c-2.24,0-4.76-.53-6.62.34-2.22,1.02-3.86,3.27-5.74,5.01,1.94,1.99,3.56,4.54,5.89,5.8,1.75.96,4.38.36,6.61.36h61.3l-.02-.02h0ZM924.96,674.14h30.21c11.18,0,22.38.06,33.56-.04,4.33-.04,10.39,1,10.46-5.25.09-6.98-6.32-5.38-10.84-5.68-.28-.02-.56,0-.85,0h-124.98c-2.24,0-4.8-.55-6.61.38-2.15,1.07-3.61,3.46-5.38,5.29,1.88,1.71,3.54,3.93,5.74,4.95,1.86.85,4.38.34,6.62.34h62.07v.02h0ZM881.92,786.61c8.07,0,16.2.47,24.2-.26,2.75-.24,5.21-3.48,7.81-5.34-2.39-1.86-4.74-5.27-7.19-5.34-16.41-.43-32.86-.4-49.27.11-2.39.08-4.65,3.56-6.98,5.46,2.39,1.79,4.69,4.89,7.21,5.1,8.02.66,16.13.24,24.2.26l.02.02h0Z"/>
  <path class="cls-1" d="M1124.83,504.51h193.65v192.75h-193.65v-192.75ZM1222.05,539.23h-65.44c-4.27,0-9.69-.08-8.98,5.65.28,2.26,5.95,5.44,9.17,5.48,43.34.36,86.68.38,130.02,0,3.18-.02,6.3-3.65,9.47-5.61-3.22-1.84-6.4-5.19-9.65-5.27-21.53-.47-43.06-.24-64.59-.24h0ZM1221.78,588.06h34.4c10.63,0,21.27.36,31.86-.24,2.82-.17,5.48-3.31,8.21-5.08-2.77-2.03-5.42-4.25-8.36-6.02-1.04-.62-2.73-.11-4.14-.11-41.38,0-82.77,0-124.15.04-2.77,0-5.72-.06-8.22.87-1.71.64-4.06,3.11-3.9,4.48.24,1.99,2.13,4.5,3.99,5.42,2.07,1.02,4.89.64,7.4.64,20.96.04,41.95.02,62.91.02h0v-.02ZM1221.56,614.49h-60.34c-3.07,0-6.32-.41-9.13.49-1.88.6-4.33,3.16-4.35,4.87s2.37,4.05,4.27,4.99c1.83.92,4.37.53,6.59.53,42.19.02,84.37.02,126.56,0,2.22,0,4.8.38,6.57-.58,1.84-1.02,3.78-3.33,4.01-5.29.17-1.37-2.16-3.8-3.88-4.46-2.22-.87-4.95-.55-7.45-.55-20.95-.04-41.91,0-62.86,0h0ZM1178.82,651.73c-8.07,0-16.2-.41-24.22.24-2.58.21-4.91,3.27-7.36,5.04,2.45,2.07,4.82,5.85,7.32,5.93,16.15.55,32.31.55,48.46.04,2.69-.09,5.29-3.59,7.92-5.51-2.63-1.92-5.14-5.21-7.92-5.48-8.02-.75-16.13-.26-24.22-.26h.02ZM1269.17,651.75c-6.72,0-13.49-.49-20.12.24-2.65.28-5.02,3.24-7.51,4.99,2.47,2.09,4.84,5.87,7.38,5.98,13.4.6,26.86.55,40.27,0,2.43-.09,4.74-3.56,7.1-5.48-2.31-1.9-4.5-5.18-7-5.46-6.62-.77-13.4-.26-20.12-.28h0Z"/>
  <path class="cls-7" d="M972.84,362.74c21,0,42.01-.02,62.99.04,2.48,0,5.25-.15,7.4.83,1.67.75,3.56,3.16,3.58,4.84,0,1.69-1.84,4.2-3.5,4.87-2.47,1.02-5.44.94-8.21.96-41.72.06-83.43.04-125.15.04-1.39,0-3.09.49-4.14-.11-2.82-1.64-5.38-3.75-8.05-5.66,2.63-1.92,5.21-5.4,7.9-5.5,15.38-.55,30.79-.28,46.18-.28h21v-.02h0Z"/>
  <path class="cls-5" d="M972.1,336.45h-62.14c-2.24,0-4.8.51-6.62-.41-2.15-1.09-3.63-3.46-5.4-5.29,1.9-1.69,3.59-3.82,5.78-4.95,1.58-.81,3.84-.28,5.8-.28h125.98c1.11,0,2.47-.4,3.31.08,2.82,1.54,5.46,3.41,8.17,5.16-2.84,1.9-5.66,5.38-8.54,5.46-22.11.45-44.23.24-66.34.26l.02-.02h-.02Z"/>
  <path class="cls-2" d="M924.19,711.97h-61.3c-2.24,0-4.87.6-6.61-.36-2.33-1.28-3.95-3.82-5.89-5.8,1.88-1.71,3.54-3.97,5.74-5.01,1.86-.87,4.4-.34,6.62-.34h124.27c1.11,0,2.43-.38,3.33.08,3.14,1.54,8.43,3.03,8.75,5.16.85,5.51-4.12,6.25-8.6,6.25h-66.34l.02.02h0Z"/>
  <path class="cls-6" d="M924.96,674.14h-62.07c-2.24,0-4.76.51-6.62-.34-2.2-1.02-3.86-3.24-5.74-4.95,1.77-1.83,3.24-4.22,5.38-5.29,1.81-.92,4.38-.38,6.61-.38h125.83c4.52.32,10.93-1.28,10.84,5.68-.09,6.25-6.14,5.21-10.46,5.25-11.18.09-22.38.04-33.56.04h-30.21v-.02h0Z"/>
  <path class="cls-6" d="M881.92,786.59c-8.07,0-16.18.41-24.2-.26-2.52-.21-4.82-3.33-7.21-5.1,2.33-1.9,4.59-5.38,6.98-5.46,16.41-.53,32.86-.56,49.27-.11,2.45.06,4.8,3.48,7.19,5.34-2.6,1.86-5.06,5.1-7.81,5.34-8.02.73-16.13.26-24.2.24h-.02,0Z"/>
  <path class="cls-9" d="M1222.05,539.21c21.53,0,43.08-.23,64.59.24,3.26.08,6.44,3.43,9.65,5.27-3.16,1.96-6.29,5.59-9.47,5.61-43.34.38-86.68.38-130.02,0-3.24-.02-8.88-3.22-9.17-5.48-.72-5.72,4.7-5.65,8.98-5.65h65.44Z"/>
  <path class="cls-8" d="M1221.78,588.06c-20.96,0-41.95,0-62.91-.02-2.5,0-5.33.38-7.4-.64-1.86-.92-3.75-3.43-3.99-5.42-.17-1.37,2.18-3.84,3.9-4.48,2.5-.92,5.46-.87,8.22-.87,41.38-.04,82.77-.04,124.15-.04,1.39,0,3.11-.51,4.14.11,2.94,1.77,5.59,3.99,8.36,6.02-2.73,1.77-5.38,4.91-8.21,5.08-10.6.6-21.23.24-31.86.24h-34.4v.02Z"/>
  <path class="cls-5" d="M1221.56,614.49h62.86c2.5,0,5.23-.32,7.45.55,1.71.66,4.05,3.09,3.88,4.46-.24,1.96-2.16,4.27-4.01,5.29-1.77.96-4.35.58-6.57.58-42.19.02-84.37.02-126.56,0-2.22,0-4.76.4-6.59-.53-1.9-.96-4.29-3.29-4.27-4.99.02-1.71,2.47-4.27,4.35-4.87,2.8-.9,6.06-.49,9.13-.49,20.12-.02,40.24,0,60.34,0h-.01Z"/>
  <path class="cls-11" d="M1178.82,651.73c8.07,0,16.2-.49,24.22.26,2.79.26,5.29,3.56,7.92,5.48-2.63,1.92-5.23,5.44-7.92,5.51-16.15.53-32.31.51-48.46-.04-2.5-.09-4.89-3.86-7.32-5.93,2.45-1.77,4.78-4.84,7.36-5.04,8.02-.66,16.15-.24,24.22-.24h-.02Z"/>
  <path class="cls-11" d="M1269.17,651.75c6.72,0,13.49-.51,20.12.26,2.52.3,4.69,3.56,7,5.46-2.37,1.9-4.67,5.36-7.1,5.48-13.42.55-26.87.58-40.27,0-2.54-.11-4.93-3.9-7.38-5.98,2.5-1.73,4.86-4.69,7.51-4.99,6.64-.72,13.4-.24,20.12-.23h0Z"/>
</svg>