<?xml version="1.0" encoding="UTF-8"?>
<svg id="Layer_1" data-name="Layer 1" xmlns="http://www.w3.org/2000/svg" viewBox="0 0 1112.44 897.99">
  <defs>
    <style>
      .cls-1 {
        fill: #f2f2f3;
      }

      .cls-1, .cls-2, .cls-3, .cls-4, .cls-5, .cls-6, .cls-7, .cls-8, .cls-9, .cls-10, .cls-11, .cls-12, .cls-13, .cls-14, .cls-15, .cls-16, .cls-17, .cls-18, .cls-19, .cls-20, .cls-21, .cls-22, .cls-23, .cls-24, .cls-25, .cls-26, .cls-27, .cls-28 {
        stroke-width: 0px;
      }

      .cls-2 {
        fill: #cbe313;
      }

      .cls-3 {
        fill: #f4f4f5;
      }

      .cls-4 {
        fill: #1f212b;
      }

      .cls-5 {
        fill: #c7de15;
      }

      .cls-6 {
        fill: #261632;
      }

      .cls-7 {
        fill: #f5f5f6;
      }

      .cls-8 {
        fill: #0f0f27;
      }

      .cls-9 {
        fill: #f3f3f4;
      }

      .cls-10 {
        fill: #f6f6f6;
      }

      .cls-11 {
        fill: #f8f8f8;
      }

      .cls-12 {
        fill: #f9f9fa;
      }

      .cls-13 {
        fill: #ededee;
      }

      .cls-14 {
        fill: #141429;
      }

      .cls-15 {
        fill: #f1f1f2;
      }

      .cls-16 {
        fill: #ef1067;
      }

      .cls-17 {
        fill: #16132b;
      }

      .cls-18 {
        fill: #241e2b;
      }

      .cls-19 {
        fill: #19162e;
      }

      .cls-20 {
        fill: #16152a;
      }

      .cls-21 {
        fill: #f0f0f2;
      }

      .cls-22 {
        fill: #1e1b2d;
      }

      .cls-23 {
        fill: #13132b;
      }

      .cls-24 {
        fill: #fdfdfd;
      }

      .cls-25 {
        fill: #efeff1;
      }

      .cls-26 {
        fill: #1f1c2e;
      }

      .cls-27 {
        fill: #e8e8ea;
      }

      .cls-28 {
        fill: #f8a31e;
      }
    </style>
  </defs>
  <path class="cls-8" d="M0,895.46V.9c1.79,0,3.57.02,5.36.02,366.81,0,733.61,0,1100.42,0h5.51v894.51c-2.09,0-3.87,0-5.64,0h-318.7c-75.29,0-150.58-.01-225.87,0-29.01,0-58.02.13-87.03.12-56.84-.01-113.67-.12-170.51-.12-49.84,0-99.69.12-149.53.13-51.33,0-102.67-.07-154-.12ZM555.84,530.84c120.71.67,219.45-97.57,220.14-219.02.69-120.9-97.67-219.84-219.17-220.47-121.28-.62-220.34,97.7-220.92,219.27-.57,121.08,97.76,219.54,219.95,220.22ZM528.59,680.56c17.72-.02,32.73-14.92,32.89-32.67.17-17.76-15.17-33.07-33.03-32.97-17.92.1-32.7,14.81-32.84,32.66-.13,17.91,14.96,33,32.98,32.98ZM447.11,618.14c.1-.47.2-.93.3-1.4-2.66-.8-5.47-2.57-7.95-2.19-4.04.62-4,4.47-3.99,7.86.04,16.65.01,33.3.02,49.95,0,1.19-.36,2.76.25,3.48,1.49,1.76,3.4,4.26,5.22,4.32,1.81.07,4.06-2.2,5.44-3.98.83-1.07.44-3.15.45-4.78.12-11.14-.13-22.3.4-33.43.37-7.76,6.64-12.48,14.02-11.52,6.21.81,10.49,5.86,10.55,12.88.11,11.59,0,23.19.08,34.78.02,3.56,1.67,6.15,5.48,6.31,3.85.16,5.8-2.29,5.82-5.88.06-12.78.14-25.57-.24-38.34-.2-6.71-3.55-12.24-8.94-16.28-8.5-6.37-17.55-6.47-26.9-1.79ZM642.57,744.08c0-5.2.1-10.4-.02-15.59-.3-12.39-8.81-21.31-20.4-21.49-11.75-.19-20.73,8.7-21.03,21.27-.25,10.54-.25,21.09,0,31.63.3,12.37,9.11,21.28,20.59,21.32,11.68.04,20.53-9.06,20.84-21.55.13-5.19.02-10.4.02-15.59ZM386.13,739.57v-23.69c8.82,0,17.29,0,25.76,0,3.03,0,6.01-.38,5.92-4.3-.08-3.63-2.94-3.96-5.79-3.96-9.22,0-18.44-.02-27.66,0-6.1.02-6.83.78-6.84,7.07-.01,18.59,0,37.18,0,55.76q0,10.8,10.76,10.8c8.18,0,16.36.02,24.54-.02,2.86-.01,5.1-1.05,5.03-4.32-.06-3-2.17-3.98-4.85-4.04-1.34-.03-2.68-.02-4.02-.02-7.57,0-15.14,0-22.93,0v-24.93c7.22,0,14.19-.01,21.16,0,3.01,0,6.04-.31,6.15-4.13.11-3.95-3-4.21-5.98-4.22-6.98-.01-13.96,0-21.24,0ZM664,772.84c-.3-.42-.6-.84-.9-1.26,1.99-2.78,3.68-5.85,6.03-8.29,6.08-6.33,12.52-12.3,18.64-18.59,2.15-2.21,4.16-4.73,5.55-7.45,3.83-7.47,2.46-16.81-2.96-22.95-5.3-6.01-14.21-8.22-22.06-5.48-7.62,2.67-13.21,9.89-13.74,17.66-.19,2.8.31,5.27,3.55,5.67,3.25.4,4.41-1.8,4.75-4.64.09-.74.18-1.48.37-2.2,1.26-4.74,5.7-8.79,10.37-9.29,5.24-.56,9.26,1.4,11.93,6.06,2.88,5.03,1.95,10.99-2.75,15.86-7.23,7.49-14.63,14.82-21.76,22.4-4.09,4.35-6.35,9.66-6.51,15.74-.08,3,1.26,5.06,4.34,5.09,11.75.12,23.51.21,35.25-.12,1.49-.04,2.91-2.59,4.36-3.98-1.43-1.4-2.69-3.72-4.33-4.02-3.46-.63-7.11-.22-10.68-.22-6.48,0-12.97,0-19.45,0ZM558.25,772.84c-.33-.38-.67-.77-1-1.15,2.08-2.87,3.86-6.02,6.28-8.56,6.99-7.31,14.51-14.12,21.31-21.59,5.94-6.54,6.48-16.19,2.24-23.75-4.03-7.19-11.65-10.91-20.37-9.94-9.47,1.05-17.32,9.34-17.88,18.8-.17,2.85.41,5.22,3.67,5.55,2.99.3,4.18-1.74,4.59-4.37.09-.59.06-1.19.18-1.78.95-4.83,5.5-9.26,10.24-10.01,5.11-.8,9.58,1.42,12.34,6.11,2.97,5.07,2,10.85-2.81,15.83-7.23,7.49-14.63,14.82-21.77,22.39-4.1,4.35-6.34,9.66-6.5,15.73-.07,2.73.96,4.97,3.88,5.01,12.05.16,24.1.21,36.15-.09,1.37-.03,2.68-2.54,4.02-3.89-1.44-1.41-2.67-3.61-4.36-4.06-2.65-.7-5.61-.22-8.43-.23-7.26,0-14.51,0-21.77,0ZM584.79,614.88c-3.41,0-6.37-.06-9.33.01-4.27.11-6.63,2.12-6.69,5.53-.05,3.4,2.35,5.65,6.48,5.83,3.06.14,6.13.03,9.54.03,0,2,0,3.46,0,4.92,0,13.82-.01,27.64,0,41.46,0,5.19,2.04,7.91,5.76,7.86,3.7-.05,5.68-2.74,5.7-7.99.04-9.66.01-19.32.01-28.97,0-5.61,0-11.22,0-17.3,3.51,0,6.59.1,9.67-.03,3.56-.14,5.99-1.85,6.27-5.62.24-3.3-2.42-5.59-6.51-5.72-3.04-.1-6.09-.02-9.43-.02,0-6.14.06-11.62-.02-17.1-.07-4.85-2.18-7.32-5.96-7.21-3.57.1-5.45,2.49-5.49,7.15-.05,5.61-.01,11.23-.01,17.15ZM717.67,719.67c0,2.71,0,4.3,0,5.88,0,12.94,0,25.88,0,38.82,0,7.66-.03,7.46-7.47,8.68-1.68.28-3.04,2.54-4.54,3.89,1.43,1.42,2.81,4,4.31,4.07,8.01.41,16.06.41,24.07,0,1.5-.08,2.87-2.62,4.3-4.03-1.48-1.36-2.75-3.41-4.48-3.92-2.29-.68-4.94-.17-7.85-.17,0-8.94,0-17.39,0-25.84,0-11.45.06-22.9-.04-34.35-.04-4.64-2.98-6.66-6.61-4.42-4.54,2.81-8.96,5.91-13.02,9.35-1.05.89-1.41,4.2-.6,5.24.86,1.11,3.65,1.46,5.3,1.02,2-.54,3.69-2.26,6.63-4.21ZM439.22,781.22c7.44.02,13.09-4.09,14.62-10.65,1.66-7.14-1.26-12.96-8.38-16.33-3.22-1.52-6.75-2.45-9.82-4.21-1.34-.77-2.77-3.08-2.55-4.43.24-1.43,2.19-3.25,3.73-3.66,3.39-.92,6.22.27,7.06,4.15.64,2.97,2.01,5.27,5.42,4.33,3.33-.93,3.36-3.75,2.77-6.58-1.31-6.21-6.95-10.62-13.66-10.69-6.88-.07-12.66,4.4-14,10.82-1.35,6.48,1.54,11.42,8.49,14.28,3.16,1.3,6.53,2.16,9.55,3.72,4.11,2.13,4.49,7.66.94,9.85-4.09,2.53-10.23.39-11.63-4.23-.89-2.93-2.28-5.16-5.62-4.07-3.26,1.06-3.19,3.89-2.49,6.7,1.59,6.42,8.03,10.97,15.59,10.99ZM472.15,741.55c0,11.84,0,22.98,0,34.12,0,2.81.84,5.26,4.03,5.37,3.52.13,4.36-2.46,4.37-5.44,0-5.05,0-10.11,0-15.16,0-6.17,0-12.34,0-18.93,2.84,0,5.24.54,7.19-.16,1.73-.62,2.96-2.62,4.42-4.02-1.44-1.4-2.66-3.45-4.37-4.03-2.08-.7-4.58-.17-7.24-.17,0-4.57-.01-8.42,0-12.26.01-2.81-.77-5.27-4-5.37-3.48-.1-4.42,2.39-4.41,5.42.01,3.94,0,7.87,0,12.17-2.65,0-4.55-.03-6.46,0-2.84.06-5.16,1.05-5.1,4.29.07,3.22,2.45,4.11,5.26,4.15,1.9.03,3.8,0,6.29,0ZM627.53,647.26c0,8.62-.04,17.24.01,25.86.03,4.85,2.15,7.47,5.77,7.39,3.49-.08,5.64-2.61,5.66-7.12.06-17.09.06-34.19,0-51.28-.01-4.52-2.13-7.04-5.62-7.15-3.65-.11-5.79,2.5-5.81,7.33-.05,8.32-.01,16.65-.01,24.97ZM663.93,647.26c0,8.31-.02,16.62,0,24.93.02,5.58,1.99,8.35,5.8,8.28,3.78-.07,5.56-2.75,5.57-8.48.01-16.33.02-32.65,0-48.98,0-5.33-1.85-7.96-5.55-8.05-3.83-.09-5.81,2.66-5.82,8.24-.02,8.01,0,16.03,0,24.04ZM640.7,598.76c.12-3.99-3.16-7.37-7.28-7.51-4.09-.14-7.57,3.03-7.71,7.04-.14,4.01,3.06,7.57,7,7.81,4.1.24,7.86-3.22,7.98-7.34ZM677.05,598.41c-.07-4.05-3.45-7.25-7.56-7.16-4.09.09-7.46,3.44-7.43,7.39.04,4.1,3.76,7.64,7.85,7.46,3.93-.17,7.2-3.69,7.13-7.69ZM502.44,770.27c-3.23.32-5.28,1.95-5.5,5.29-.2,3.02,2.63,5.81,5.66,5.59,3.33-.24,5.2-2.3,5.21-5.52,0-3.32-2.06-5.06-5.36-5.36Z"/>
  <path class="cls-15" d="M0,895.46c51.33.04,102.67.12,154,.12,49.84,0,99.69-.13,149.53-.13,56.84,0,113.67.1,170.51.12,29.01,0,58.02-.11,87.03-.12,75.29-.02,150.58,0,225.87,0h318.7c1.77,0,3.55,0,5.64,0V.93h-5.51c-366.81,0-733.61,0-1100.42,0-1.79,0-3.57-.02-5.36-.02C.15.6.28.06.45.05,1.63-.03,2.83,0,4.02,0h1108.42v897.99H0v-2.53Z"/>
  <path class="cls-24" d="M555.84,530.84c-122.19-.68-220.52-99.14-219.95-220.22.57-121.57,99.63-219.89,220.92-219.27,121.5.62,219.86,99.56,219.17,220.47-.69,121.45-99.44,219.7-220.14,219.02ZM453.27,214.72c0,18.3-.01,36.6,0,54.9,0,6.81,1.62,8.46,8.43,8.47,17.56.03,35.12.16,52.67-.14,2.77-.05,6.18-1.43,8.15-3.36,18.19-17.79,36.09-35.87,54.17-53.77,2.5-2.48,3.69-5.07,3.66-8.64-.13-17.41-.05-34.81-.06-52.22,0-6.75-1.75-8.61-8.33-8.61-36.75-.03-73.5-.02-110.26,0-6.81,0-8.42,1.66-8.42,8.48-.02,18.3,0,36.6,0,54.9ZM555.03,385.43c0-18.29.01-36.58,0-54.87,0-7.11-1.62-8.77-8.63-8.77-36.58-.02-73.16-.02-109.75,0-7.02,0-8.63,1.66-8.63,8.77-.01,36.43-.01,72.86,0,109.29,0,7.1,1.63,8.78,8.63,8.78,36.58.02,73.16.02,109.75,0,7,0,8.62-1.67,8.63-8.78.02-18.14,0-36.28,0-54.42ZM649.15,255.97c-18,0-35.99,0-53.99,0-7.99,0-9.46,1.44-9.46,9.25,0,36.14,0,72.27,0,108.41,0,7.62,1.55,9.21,9.07,9.21,36.29,0,72.58,0,108.87,0,7.36,0,8.99-1.6,8.99-8.83,0-36.43,0-72.87,0-109.3,0-7.07-1.63-8.73-8.61-8.73-18.29-.02-36.59,0-54.88,0Z"/>
  <path class="cls-3" d="M528.59,680.56c-18.02.02-33.11-15.07-32.98-32.98.13-17.86,14.92-32.57,32.84-32.66,17.86-.1,33.2,15.21,33.03,32.97-.17,17.75-15.18,32.65-32.89,32.67ZM528.52,626.36c-11.83.02-21.59,9.85-21.48,21.62.11,11.67,9.69,21.09,21.47,21.13,11.98.04,21.59-9.61,21.46-21.54-.13-11.63-9.85-21.23-21.45-21.21Z"/>
  <path class="cls-11" d="M447.11,618.14c9.36-4.68,18.41-4.57,26.9,1.79,5.39,4.04,8.74,9.57,8.94,16.28.38,12.77.3,25.56.24,38.34-.02,3.59-1.97,6.04-5.82,5.88-3.81-.16-5.46-2.75-5.48-6.31-.07-11.59.03-23.19-.08-34.78-.07-7.01-4.34-12.07-10.55-12.88-7.38-.96-13.66,3.76-14.02,11.52-.52,11.12-.28,22.28-.4,33.43-.02,1.63.38,3.71-.45,4.78-1.38,1.77-3.63,4.04-5.44,3.98-1.82-.07-3.74-2.56-5.22-4.32-.61-.72-.25-2.3-.25-3.48-.01-16.65.01-33.3-.02-49.95,0-3.39-.05-7.25,3.99-7.86,2.48-.38,5.29,1.39,7.95,2.19-.1.47-.2.93-.3,1.4Z"/>
  <path class="cls-13" d="M642.57,744.08c0,5.2.11,10.4-.02,15.59-.31,12.49-9.16,21.58-20.84,21.55-11.48-.04-20.29-8.95-20.59-21.32-.26-10.54-.26-21.09,0-31.63.3-12.57,9.29-21.46,21.03-21.27,11.59.19,20.1,9.1,20.4,21.49.12,5.2.02,10.4.02,15.59ZM634.14,744.34c0-5.34.11-10.68-.03-16.02-.19-7.46-5.65-13.05-12.47-12.95-6.67.09-11.95,5.59-12.04,12.87-.12,10.53-.12,21.06,0,31.59.08,7.32,5.29,12.81,11.95,12.94,6.83.13,12.35-5.42,12.55-12.86.14-5.19.03-10.38.03-15.57Z"/>
  <path class="cls-9" d="M386.13,739.57c7.28,0,14.26,0,21.24,0,2.98,0,6.09.27,5.98,4.22-.1,3.82-3.13,4.14-6.15,4.13-6.97-.02-13.94,0-21.16,0v24.93c7.79,0,15.36,0,22.93,0,1.34,0,2.68-.02,4.02.02,2.68.07,4.79,1.04,4.85,4.04.07,3.27-2.18,4.31-5.03,4.32-8.18.04-16.36.02-24.54.02q-10.76,0-10.76-10.8c0-18.59,0-37.18,0-55.76,0-6.29.74-7.05,6.84-7.07,9.22-.03,18.44,0,27.66,0,2.85,0,5.71.33,5.79,3.96.09,3.92-2.89,4.3-5.92,4.3-8.47,0-16.94,0-25.76,0v23.69Z"/>
  <path class="cls-15" d="M664,772.84c6.48,0,12.97,0,19.45,0,3.57,0,7.22-.41,10.68.22,1.63.3,2.9,2.62,4.33,4.02-1.45,1.39-2.87,3.94-4.36,3.98-11.74.32-23.5.24-35.25.12-3.08-.03-4.42-2.09-4.34-5.09.17-6.07,2.42-11.39,6.51-15.74,7.13-7.58,14.53-14.91,21.76-22.4,4.7-4.87,5.63-10.83,2.75-15.86-2.67-4.66-6.69-6.61-11.93-6.06-4.67.5-9.11,4.55-10.37,9.29-.19.71-.29,1.46-.37,2.2-.33,2.84-1.5,5.04-4.75,4.64-3.24-.4-3.74-2.87-3.55-5.67.53-7.77,6.12-14.99,13.74-17.66,7.85-2.75,16.75-.54,22.06,5.48,5.42,6.15,6.79,15.48,2.96,22.95-1.4,2.72-3.41,5.24-5.55,7.45-6.12,6.29-12.56,12.26-18.64,18.59-2.34,2.44-4.04,5.51-6.03,8.29.3.42.6.84.9,1.26Z"/>
  <path class="cls-15" d="M558.25,772.84c7.26,0,14.51,0,21.77,0,2.83,0,5.79-.47,8.43.23,1.69.45,2.92,2.65,4.36,4.06-1.34,1.36-2.65,3.86-4.02,3.89-12.04.3-24.1.25-36.15.09-2.91-.04-3.95-2.27-3.88-5.01.15-6.07,2.4-11.38,6.5-15.73,7.14-7.57,14.54-14.9,21.77-22.39,4.81-4.98,5.78-10.76,2.81-15.83-2.75-4.69-7.23-6.91-12.34-6.11-4.74.74-9.28,5.17-10.24,10.01-.11.58-.08,1.19-.18,1.78-.41,2.63-1.6,4.67-4.59,4.37-3.26-.33-3.84-2.7-3.67-5.55.56-9.45,8.41-17.74,17.88-18.8,8.72-.97,16.34,2.75,20.37,9.94,4.24,7.56,3.7,17.21-2.24,23.75-6.79,7.48-14.32,14.29-21.31,21.59-2.43,2.54-4.21,5.69-6.28,8.56.33.38.67.77,1,1.15Z"/>
  <path class="cls-10" d="M584.79,614.88c0-5.92-.04-11.53.01-17.15.04-4.66,1.92-7.05,5.49-7.15,3.78-.11,5.89,2.36,5.96,7.21.08,5.48.02,10.96.02,17.1,3.33,0,6.38-.08,9.43.02,4.09.13,6.76,2.42,6.51,5.72-.28,3.76-2.71,5.47-6.27,5.62-3.08.12-6.16.03-9.67.03,0,6.08,0,11.69,0,17.3,0,9.66.02,19.32-.01,28.97-.02,5.24-1.99,7.94-5.7,7.99-3.72.05-5.75-2.67-5.76-7.86-.02-13.82,0-27.64,0-41.46,0-1.46,0-2.92,0-4.92-3.4,0-6.48.11-9.54-.03-4.13-.18-6.53-2.44-6.48-5.83.05-3.42,2.42-5.42,6.69-5.53,2.96-.08,5.92-.01,9.33-.01Z"/>
  <path class="cls-7" d="M717.67,719.67c-2.94,1.95-4.62,3.66-6.63,4.21-1.65.44-4.44.09-5.3-1.02-.81-1.04-.45-4.35.6-5.24,4.07-3.45,8.48-6.54,13.02-9.35,3.62-2.24,6.56-.22,6.61,4.42.1,11.45.04,22.9.04,34.35,0,8.45,0,16.9,0,25.84,2.91,0,5.56-.51,7.85.17,1.73.51,3,2.56,4.48,3.92-1.43,1.41-2.8,3.96-4.3,4.03-8.01.4-16.06.4-24.07,0-1.5-.08-2.88-2.65-4.31-4.07,1.51-1.35,2.86-3.62,4.54-3.89,7.43-1.22,7.47-1.01,7.47-8.68,0-12.94,0-25.88,0-38.82,0-1.58,0-3.17,0-5.88Z"/>
  <path class="cls-25" d="M439.22,781.22c-7.55-.02-14-4.58-15.59-10.99-.7-2.82-.76-5.64,2.49-6.7,3.33-1.09,4.73,1.14,5.62,4.07,1.4,4.62,7.54,6.76,11.63,4.23,3.55-2.2,3.18-7.72-.94-9.85-3.01-1.56-6.39-2.41-9.55-3.72-6.94-2.86-9.84-7.8-8.49-14.28,1.34-6.43,7.11-10.89,14-10.82,6.71.07,12.36,4.47,13.66,10.69.6,2.83.56,5.66-2.77,6.58-3.41.95-4.77-1.36-5.42-4.33-.84-3.89-3.67-5.07-7.06-4.15-1.54.42-3.49,2.23-3.73,3.66-.22,1.34,1.21,3.66,2.55,4.43,3.07,1.76,6.6,2.69,9.82,4.21,7.13,3.37,10.05,9.19,8.38,16.33-1.53,6.56-7.18,10.68-14.62,10.65Z"/>
  <path class="cls-21" d="M472.15,741.55c-2.49,0-4.39.02-6.29,0-2.81-.04-5.2-.93-5.26-4.15-.07-3.23,2.26-4.23,5.1-4.29,1.91-.04,3.81,0,6.46,0,0-4.3.01-8.23,0-12.17-.01-3.03.93-5.52,4.41-5.42,3.23.09,4.01,2.56,4,5.37-.01,3.85,0,7.69,0,12.26,2.66,0,5.16-.54,7.24.17,1.72.58,2.93,2.63,4.37,4.03-1.45,1.39-2.69,3.39-4.42,4.02-1.95.7-4.35.16-7.19.16,0,6.59,0,12.76,0,18.93,0,5.05,0,10.11,0,15.16,0,2.98-.84,5.57-4.37,5.44-3.19-.11-4.03-2.57-4.03-5.37,0-11.14,0-22.28,0-34.12Z"/>
  <path class="cls-1" d="M627.52,647.26c0-8.32-.04-16.65.01-24.97.03-4.83,2.17-7.44,5.81-7.33,3.5.11,5.61,2.64,5.62,7.15.05,17.09.05,34.19,0,51.28-.02,4.51-2.17,7.04-5.66,7.12-3.63.08-5.75-2.54-5.77-7.39-.05-8.62-.01-17.24-.01-25.86Z"/>
  <path class="cls-12" d="M663.93,647.26c0-8.01-.02-16.03,0-24.04.02-5.58,1.99-8.34,5.82-8.24,3.7.09,5.54,2.72,5.55,8.05.02,16.33.01,32.65,0,48.98,0,5.73-1.79,8.41-5.57,8.48-3.81.07-5.79-2.7-5.8-8.28-.03-8.31,0-16.62,0-24.93Z"/>
  <path class="cls-25" d="M640.7,598.76c-.12,4.12-3.88,7.58-7.98,7.34-3.95-.23-7.15-3.8-7-7.81.14-4.01,3.62-7.18,7.71-7.04,4.12.14,7.39,3.52,7.28,7.51Z"/>
  <path class="cls-15" d="M677.05,598.41c.07,3.99-3.2,7.52-7.13,7.69-4.09.18-7.82-3.36-7.85-7.46-.04-3.94,3.34-7.3,7.43-7.39,4.11-.09,7.49,3.11,7.56,7.16Z"/>
  <path class="cls-27" d="M502.44,770.27c3.29.3,5.37,2.04,5.36,5.36,0,3.22-1.88,5.28-5.21,5.52-3.02.22-5.85-2.57-5.66-5.59.22-3.34,2.27-4.97,5.5-5.29Z"/>
  <path class="cls-14" d="M453.27,214.72c0-18.3-.01-36.6,0-54.9,0-6.82,1.61-8.48,8.42-8.48,36.75-.02,73.5-.02,110.26,0,6.58,0,8.33,1.86,8.33,8.61.01,17.41-.07,34.81.06,52.22.03,3.57-1.16,6.16-3.66,8.64-18.08,17.9-35.98,35.98-54.17,53.77-1.97,1.93-5.38,3.31-8.15,3.36-17.55.3-35.11.17-52.67.14-6.81-.01-8.42-1.65-8.43-8.47-.02-18.3,0-36.6,0-54.9ZM465.35,163.57v102.29h45.54v-5.1c0-14.13,0-28.26,0-42.39,0-8.12,1.35-9.45,9.67-9.45,14.58,0,29.15-.09,43.73.06,3.28.04,4.45-.84,4.35-4.25-.23-7.88-.07-15.76-.07-23.64,0-5.76,0-11.52,0-17.53h-103.21ZM522.63,255.52c11.46-11.53,23.31-23.46,34.38-34.59h-34.38v34.59Z"/>
  <path class="cls-19" d="M555.03,385.43c0,18.14.01,36.28,0,54.42,0,7.11-1.63,8.78-8.63,8.78-36.58.02-73.16.02-109.75,0-7,0-8.63-1.68-8.63-8.78-.01-36.43-.01-72.86,0-109.29,0-7.1,1.62-8.76,8.63-8.77,36.58-.02,73.16-.02,109.75,0,7.01,0,8.62,1.66,8.63,8.77.02,18.29,0,36.58,0,54.87ZM542.78,334.1h-102.41v102.2h102.41v-102.2Z"/>
  <path class="cls-20" d="M649.15,255.97c18.29,0,36.59-.01,54.88,0,6.98,0,8.6,1.67,8.61,8.73,0,36.43,0,72.87,0,109.3,0,7.23-1.63,8.83-8.99,8.83-36.29,0-72.58,0-108.87,0-7.52,0-9.07-1.59-9.07-9.21,0-36.14,0-72.27,0-108.41,0-7.81,1.47-9.24,9.46-9.25,18,0,35.99,0,53.99,0ZM597.68,268.07v102.42h102.9v-102.42h-102.9Z"/>
  <path class="cls-23" d="M528.52,626.36c11.61-.02,21.32,9.58,21.45,21.21.13,11.93-9.47,21.58-21.46,21.54-11.78-.04-21.36-9.46-21.47-21.13-.12-11.77,9.65-21.6,21.48-21.62Z"/>
  <path class="cls-23" d="M634.13,744.34c0,5.19.11,10.39-.03,15.57-.2,7.43-5.72,12.99-12.55,12.86-6.67-.13-11.87-5.62-11.95-12.94-.12-10.53-.12-21.06,0-31.59.08-7.28,5.37-12.78,12.04-12.87,6.82-.09,12.28,5.5,12.47,12.95.13,5.34.03,10.68.03,16.02Z"/>
  <path class="cls-2" d="M465.35,163.57h103.21c0,6,0,11.77,0,17.53,0,7.88-.16,15.77.07,23.64.1,3.41-1.07,4.28-4.35,4.25-14.57-.16-29.15-.07-43.73-.06-8.32,0-9.67,1.33-9.67,9.45,0,14.13,0,28.26,0,42.39v5.1h-45.54v-102.29ZM516.92,192.74c-3.72,0-7.44,0-11.16,0-8.18,0-16.37-.14-24.54.15-1.43.05-2.8,1.9-4.2,2.92,1.42,1.02,2.78,2.14,4.28,3.01.56.32,1.46.06,2.2.06,22.17,0,44.33,0,66.5-.02,1.47,0,3.06.03,4.36-.51.87-.36,1.86-1.7,1.86-2.59,0-.89-1.01-2.17-1.9-2.57-1.14-.52-2.6-.43-3.93-.44-11.16-.03-22.31-.02-33.47-.02ZM516.53,178.77c11.75,0,23.5.11,35.25-.13,1.53-.03,3.03-1.89,4.54-2.9-1.44-.93-2.85-1.92-4.34-2.74-.46-.25-1.17-.04-1.76-.04-22.31,0-44.62,0-66.94,0-1.04,0-2.24-.27-3.08.15-1.17.59-2.06,1.73-3.07,2.63.94.97,1.73,2.23,2.87,2.81.96.49,2.33.21,3.52.22,11.01,0,22.01,0,33.02,0Z"/>
  <path class="cls-5" d="M522.63,255.52v-34.59h34.38c-11.07,11.14-22.93,23.06-34.38,34.59Z"/>
  <path class="cls-16" d="M542.78,334.1v102.2h-102.41v-102.2h102.41ZM491.07,378.31c11.75,0,23.5,0,35.25,0,2.38,0,5.02-.39,4.57-3.32-.17-1.14-2.98-1.92-4.65-2.74-.48-.24-1.17-.04-1.77-.04-22.01,0-44.02,0-66.03,0-1.19,0-2.53-.28-3.52.18-1.18.54-2.05,1.74-3.05,2.66,1.03,1.06,1.89,2.41,3.13,3.08.93.51,2.33.19,3.51.19,10.86,0,21.71,0,32.57,0ZM491.48,358.21c5.35,0,10.7,0,16.05,0,5.94,0,11.89.03,17.83-.02,2.3-.02,5.52.53,5.56-2.79.05-3.71-3.36-2.86-5.76-3.02-.15-.01-.3,0-.45,0-22.14,0-44.27,0-66.41,0-1.19,0-2.55-.29-3.51.2-1.14.57-1.92,1.84-2.86,2.81,1,.91,1.88,2.09,3.05,2.63.99.45,2.33.18,3.52.18,10.99,0,21.99,0,32.98,0ZM468.61,417.97c4.29,0,8.61.25,12.86-.14,1.46-.13,2.77-1.85,4.15-2.84-1.27-.99-2.52-2.8-3.82-2.84-8.72-.23-17.46-.21-26.18.06-1.27.04-2.47,1.89-3.71,2.9,1.27.95,2.49,2.6,3.83,2.71,4.26.35,8.57.13,12.86.14Z"/>
  <path class="cls-28" d="M597.68,268.07h102.9v102.42h-102.9v-102.42ZM649.34,286.52c-11.59,0-23.18,0-34.77,0-2.27,0-5.15-.04-4.77,3,.15,1.2,3.16,2.89,4.87,2.91,23.03.19,46.06.2,69.09,0,1.69-.01,3.35-1.94,5.03-2.98-1.71-.98-3.4-2.76-5.13-2.8-11.44-.25-22.88-.13-34.32-.13ZM649.2,312.47c6.09,0,12.18,0,18.28,0,5.65,0,11.3.19,16.93-.13,1.5-.09,2.91-1.76,4.36-2.7-1.47-1.08-2.88-2.26-4.44-3.2-.55-.33-1.45-.06-2.2-.06-21.99,0-43.98,0-65.97.02-1.47,0-3.04-.03-4.37.46-.91.34-2.16,1.65-2.07,2.38.13,1.06,1.13,2.39,2.12,2.88,1.1.54,2.6.34,3.93.34,11.14.02,22.29.01,33.43.01ZM649.08,326.51c-10.69,0-21.38,0-32.06,0-1.63,0-3.36-.22-4.85.26-1,.32-2.3,1.68-2.31,2.59-.01.91,1.26,2.15,2.27,2.65.97.49,2.32.28,3.5.28,22.42.01,44.83.01,67.25,0,1.18,0,2.55.2,3.49-.31.98-.54,2.01-1.77,2.13-2.81.09-.73-1.15-2.02-2.06-2.37-1.18-.46-2.63-.29-3.96-.29-11.13-.02-22.27,0-33.4,0ZM626.37,346.3c-4.29,0-8.61-.22-12.87.13-1.37.11-2.61,1.74-3.91,2.68,1.3,1.1,2.56,3.11,3.89,3.15,8.58.29,17.17.29,25.75.02,1.43-.05,2.81-1.91,4.21-2.93-1.4-1.02-2.73-2.77-4.21-2.91-4.26-.4-8.57-.14-12.87-.14ZM674.38,346.31c-3.57,0-7.17-.26-10.69.13-1.41.15-2.67,1.72-3.99,2.65,1.31,1.11,2.57,3.12,3.92,3.18,7.12.32,14.27.29,21.4,0,1.29-.05,2.52-1.89,3.77-2.91-1.23-1.01-2.39-2.75-3.72-2.9-3.52-.41-7.12-.14-10.69-.15Z"/>
  <path class="cls-4" d="M516.92,192.74c11.16,0,22.32-.01,33.47.02,1.32,0,2.79-.08,3.93.44.89.4,1.89,1.68,1.9,2.57,0,.9-.98,2.23-1.86,2.59-1.31.54-2.89.5-4.36.51-22.17.03-44.33.02-66.5.02-.74,0-1.64.26-2.2-.06-1.5-.87-2.86-1.99-4.28-3.01,1.4-1.02,2.77-2.87,4.2-2.92,8.17-.29,16.36-.15,24.54-.15,3.72,0,7.44,0,11.16,0Z"/>
  <path class="cls-14" d="M516.53,178.77c-11.01,0-22.01,0-33.02,0-1.19,0-2.55.27-3.52-.22-1.14-.58-1.93-1.84-2.87-2.81,1.01-.9,1.91-2.03,3.07-2.63.84-.43,2.04-.15,3.08-.15,22.31,0,44.62,0,66.94,0,.59,0,1.31-.21,1.76.04,1.5.82,2.9,1.81,4.34,2.74-1.51,1.01-3.01,2.86-4.54,2.9-11.75.24-23.5.13-35.25.14Z"/>
  <path class="cls-6" d="M491.07,378.31c-10.86,0-21.71,0-32.57,0-1.19,0-2.59.32-3.51-.19-1.24-.68-2.1-2.03-3.13-3.08,1-.91,1.88-2.11,3.05-2.66.99-.46,2.34-.18,3.52-.18,22.01,0,44.02,0,66.03,0,.59,0,1.29-.2,1.77.04,1.67.82,4.48,1.61,4.65,2.74.45,2.93-2.19,3.32-4.57,3.32-11.75,0-23.5,0-35.25,0Z"/>
  <path class="cls-17" d="M491.48,358.21c-10.99,0-21.99,0-32.98,0-1.19,0-2.53.27-3.52-.18-1.17-.54-2.05-1.72-3.05-2.63.94-.97,1.72-2.24,2.86-2.81.96-.49,2.33-.2,3.51-.2,22.14,0,44.27,0,66.41,0,.15,0,.3,0,.45,0,2.4.17,5.81-.68,5.76,3.02-.05,3.32-3.26,2.77-5.56,2.79-5.94.05-11.89.02-17.83.02-5.35,0-10.7,0-16.05,0Z"/>
  <path class="cls-17" d="M468.61,417.96c-4.29,0-8.6.22-12.86-.14-1.34-.11-2.56-1.77-3.83-2.71,1.24-1.01,2.44-2.86,3.71-2.9,8.72-.28,17.46-.3,26.18-.06,1.3.03,2.55,1.85,3.82,2.84-1.38.99-2.69,2.71-4.15,2.84-4.26.39-8.57.14-12.86.13Z"/>
  <path class="cls-26" d="M649.34,286.51c11.44,0,22.89-.12,34.32.13,1.73.04,3.42,1.82,5.13,2.8-1.68,1.04-3.34,2.97-5.03,2.98-23.03.2-46.06.2-69.09,0-1.72-.01-4.72-1.71-4.87-2.91-.38-3.04,2.5-3,4.77-3,11.59,0,23.18,0,34.77,0Z"/>
  <path class="cls-22" d="M649.2,312.47c-11.14,0-22.29,0-33.43-.01-1.33,0-2.83.2-3.93-.34-.99-.49-1.99-1.82-2.12-2.88-.09-.73,1.16-2.04,2.07-2.38,1.33-.49,2.9-.46,4.37-.46,21.99-.02,43.98-.02,65.97-.02.74,0,1.65-.27,2.2.06,1.56.94,2.97,2.12,4.44,3.2-1.45.94-2.86,2.61-4.36,2.7-5.63.32-11.28.13-16.93.13-6.09,0-12.18,0-18.28,0Z"/>
  <path class="cls-14" d="M649.08,326.51c11.13,0,22.27,0,33.4,0,1.33,0,2.78-.17,3.96.29.91.35,2.15,1.64,2.06,2.37-.13,1.04-1.15,2.27-2.13,2.81-.94.51-2.31.31-3.49.31-22.42.01-44.83.01-67.25,0-1.18,0-2.53.21-3.5-.28-1.01-.51-2.28-1.75-2.27-2.65.01-.91,1.31-2.27,2.31-2.59,1.49-.48,3.22-.26,4.85-.26,10.69-.01,21.38,0,32.06,0Z"/>
  <path class="cls-18" d="M626.37,346.3c4.29,0,8.61-.26,12.87.14,1.48.14,2.81,1.89,4.21,2.91-1.4,1.02-2.78,2.89-4.21,2.93-8.58.28-17.17.27-25.75-.02-1.33-.05-2.6-2.05-3.89-3.15,1.3-.94,2.54-2.57,3.91-2.68,4.26-.35,8.58-.13,12.87-.13Z"/>
  <path class="cls-18" d="M674.38,346.31c3.57,0,7.17-.27,10.69.14,1.34.16,2.49,1.89,3.72,2.9-1.26,1.01-2.48,2.85-3.77,2.91-7.13.29-14.28.31-21.4,0-1.35-.06-2.62-2.07-3.92-3.18,1.33-.92,2.58-2.49,3.99-2.65,3.53-.38,7.12-.13,10.69-.12Z"/>
</svg>